<svg width="32" height="44" viewBox="0 0 32 44" fill="none" xmlns="http://www.w3.org/2000/svg">
<path d="M27.3135 4.78885C24.5161 1.93016 20.7818 0.231987 16.8315 0.0220719C12.8811 -0.187844 8.9947 1.10538 5.92233 3.65215C2.84995 6.19892 0.809411 9.8187 0.194532 13.8129C-0.420346 17.807 0.434026 21.8924 2.59275 25.2805L13.7161 42.735C13.9637 43.1234 14.3021 43.4425 14.7008 43.6634C15.0995 43.8843 15.5458 44 15.9993 44C16.4528 44 16.8991 43.8843 17.2978 43.6634C17.6965 43.4425 18.035 43.1234 18.2825 42.735L29.4062 25.2805C31.4093 22.1376 32.2945 18.3863 31.9135 14.6555C31.5325 10.9248 29.9084 7.44124 27.3135 4.78885ZM26.9396 23.638L15.9994 40.8044L5.05907 23.638C1.7103 18.3833 2.42854 11.3512 6.76686 6.91662C7.97928 5.67732 9.41863 4.69424 11.0028 4.02353C12.5869 3.35283 14.2847 3.00762 15.9994 3.00762C17.714 3.00762 19.4119 3.35283 20.996 4.02353C22.5801 4.69424 24.0194 5.67732 25.2319 6.91662C29.5702 11.3512 30.2883 18.3833 26.9396 23.638Z" fill="#F8F8F8"/>
</svg>
