<svg width="140" height="100" viewBox="0 0 140 100" fill="none" xmlns="http://www.w3.org/2000/svg">
<g filter="url(#filter0_f_4_8271)">
<g filter="url(#filter1_d_4_8271)">
<path d="M79.624 67.6066H36.2824C32.0779 67.6041 28.0377 66.3297 25.0075 64.0502C21.9772 61.7707 20.192 58.6629 20.0255 55.3773C19.859 52.0917 21.3241 48.8831 24.1141 46.4232C26.9041 43.9633 30.8027 42.4428 34.9937 42.18C35.5914 38.8795 37.4971 35.8086 40.4428 33.3993C43.3885 30.99 47.2259 29.3637 51.4151 28.749C55.6044 28.1343 59.9346 28.5622 63.7967 29.9725C67.6587 31.3829 70.8582 33.7047 72.945 36.6113C76.7724 35.5751 80.9076 35.4541 84.8234 36.2635C88.7391 37.0729 92.2578 38.7762 94.9307 41.156C97.6035 43.5359 99.3094 46.4844 99.8306 49.6256C100.352 52.7668 99.665 55.9582 97.8575 58.7928C96.7969 61.354 94.7259 63.5866 91.942 65.1701C89.158 66.7535 85.8041 67.6065 82.3617 67.6066H79.624Z" fill="url(#paint0_linear_4_8271)"/>
<path d="M82.3609 67.4298C84.1089 67.4298 85.8274 67.2116 87.4689 66.7811C89.0562 66.3649 90.5464 65.7574 91.898 64.9756C93.2341 64.2029 94.4053 63.2772 95.3791 62.2243C96.365 61.1582 97.1261 59.9855 97.6413 58.7387L97.6466 58.7259L97.6543 58.7139C98.3394 57.6431 98.867 56.5104 99.2224 55.3471C99.5881 54.15 99.7736 52.9132 99.7736 51.671C99.7736 50.6017 99.6359 49.5331 99.3642 48.4949C99.0995 47.4832 98.7045 46.488 98.1902 45.5371C97.6852 44.6033 97.0602 43.7027 96.3324 42.8603C95.6115 42.0258 94.7836 41.2411 93.8718 40.5279C92.9599 39.8147 91.9565 39.1673 90.8894 38.6035C89.8122 38.0344 88.6606 37.5455 87.4667 37.1506C86.2507 36.7484 84.9782 36.4394 83.6846 36.2324C82.3571 36.02 80.9907 35.9122 79.6233 35.9122C77.3594 35.9122 75.1371 36.2036 73.0183 36.7783L72.8396 36.8268L72.7468 36.6978C71.0225 34.3 68.5144 32.2863 65.4936 30.8744C63.9659 30.1604 62.3246 29.6086 60.6154 29.2344C58.852 28.8484 57.0203 28.6527 55.1713 28.6527C52.6843 28.6527 50.2566 29.0027 47.9556 29.6931C45.7327 30.36 43.6936 31.3235 41.8948 32.5566C40.1063 33.7826 38.6222 35.2292 37.4835 36.8562C36.3168 38.5232 35.5543 40.3225 35.2171 42.2043L35.1919 42.3452L35.0106 42.3563C32.9824 42.4804 31.031 42.898 29.2107 43.5975C27.4419 44.2772 25.8624 45.1965 24.5161 46.3298C21.7499 48.6587 20.2264 51.6929 20.2264 54.8737C20.2264 56.5688 20.6509 58.2132 21.488 59.761C21.8904 60.505 22.3884 61.2226 22.9683 61.8938C23.5426 62.5587 24.2023 63.184 24.9289 63.7522C25.6555 64.3204 26.455 64.8363 27.3051 65.2855C28.1634 65.739 29.081 66.1285 30.0323 66.4432C32.0115 67.0979 34.114 67.4298 36.2816 67.4298H79.6233H82.3609ZM82.3609 67.6069H79.6233H36.2816C27.2895 67.6069 20 61.906 20 54.8737C20 48.1804 26.6031 42.6933 34.9929 42.1797C36.3807 34.4351 44.886 28.4756 55.1713 28.4756C62.8017 28.4756 69.4524 31.7554 72.9441 36.611C75.0366 36.0435 77.2839 35.7352 79.6233 35.7352C90.8772 35.7352 100 42.87 100 51.671C100 54.2307 99.228 56.6499 97.8568 58.7931C95.7432 63.9078 89.6046 67.6069 82.3609 67.6069Z" fill="white" fill-opacity="0.5"/>
</g>
</g>
<defs>
<filter id="filter0_f_4_8271" x="16" y="24.4756" width="88" height="47.1309" filterUnits="userSpaceOnUse" color-interpolation-filters="sRGB">
<feFlood flood-opacity="0" result="BackgroundImageFix"/>
<feBlend mode="normal" in="SourceGraphic" in2="BackgroundImageFix" result="shape"/>
<feGaussianBlur stdDeviation="2" result="effect1_foregroundBlur_4_8271"/>
</filter>
<filter id="filter1_d_4_8271" x="0" y="0.475586" width="140" height="99.1309" filterUnits="userSpaceOnUse" color-interpolation-filters="sRGB">
<feFlood flood-opacity="0" result="BackgroundImageFix"/>
<feColorMatrix in="SourceAlpha" type="matrix" values="0 0 0 0 0 0 0 0 0 0 0 0 0 0 0 0 0 0 127 0" result="hardAlpha"/>
<feOffset dx="10" dy="2"/>
<feGaussianBlur stdDeviation="15"/>
<feColorMatrix type="matrix" values="0 0 0 0 0.44901 0 0 0 0 0.730915 0 0 0 0 0.970833 0 0 0 0.596 0"/>
<feBlend mode="normal" in2="BackgroundImageFix" result="effect1_dropShadow_4_8271"/>
<feBlend mode="normal" in="SourceGraphic" in2="effect1_dropShadow_4_8271" result="shape"/>
</filter>
<linearGradient id="paint0_linear_4_8271" x1="60.0065" y1="28.4756" x2="75.075" y2="75.0597" gradientUnits="userSpaceOnUse">
<stop stop-color="white" stop-opacity="0.604"/>
<stop offset="1" stop-color="white" stop-opacity="0.2"/>
</linearGradient>
</defs>
</svg>
